<?xml version="1.0" standalone="no"?>
<!DOCTYPE svg PUBLIC "-//W3C//DTD SVG 20010904//EN"
 "http://www.w3.org/TR/2001/REC-SVG-20010904/DTD/svg10.dtd">
<svg version="1.0" xmlns="http://www.w3.org/2000/svg"
 width="535.000000pt" height="533.000000pt" viewBox="0 0 535.000000 533.000000"
 preserveAspectRatio="xMidYMid meet">
<metadata>
Created by potrace 1.16, written by Peter Selinger 2001-2019
</metadata>
<g transform="translate(0.000000,533.000000) scale(0.100000,-0.100000)"
fill="#000000" stroke="none">
<path d="M780 4808 c0 -9 -5 -18 -12 -20 -26 -9 31 -172 135 -388 33 -69 68
-149 78 -179 10 -29 29 -69 41 -90 63 -104 110 -171 117 -166 5 2 14 -2 21
-11 9 -10 15 -12 20 -4 4 7 15 -4 27 -27 48 -92 114 -208 127 -222 7 -9 24
-36 36 -61 12 -25 36 -59 53 -77 30 -32 30 -33 23 -110 -3 -43 -9 -88 -12
-100 -5 -18 -3 -21 14 -16 16 4 21 -2 26 -29 18 -88 18 -95 -7 -144 -14 -27
-34 -78 -45 -114 -11 -36 -32 -87 -46 -114 -14 -27 -26 -56 -26 -64 0 -10 -7
-12 -25 -8 -32 8 -60 -19 -74 -71 -17 -61 -12 -71 11 -26 24 48 37 50 18 3
-22 -53 -5 -42 25 16 41 77 58 86 33 17 -10 -28 -10 -36 1 -43 12 -7 12 -13 2
-39 -7 -16 -11 -36 -8 -43 3 -8 6 -6 6 5 1 11 10 32 21 48 12 15 26 42 31 59
6 16 15 30 20 30 5 0 2 -18 -7 -39 -9 -22 -14 -50 -11 -63 3 -21 5 -21 16 10
7 17 17 32 22 32 4 0 12 -15 17 -32 7 -26 4 -42 -15 -77 -13 -24 -23 -49 -23
-55 -1 -15 -36 -56 -47 -56 -6 0 -10 -6 -11 -12 0 -7 -9 -49 -20 -93 -11 -44
-23 -98 -26 -120 -4 -22 -10 -49 -13 -60 -6 -19 -6 -18 -14 4 -5 12 -15 21
-21 18 -10 -3 -12 -30 -10 -103 3 -91 2 -97 -12 -79 -8 11 -16 15 -16 8 0 -6
10 -19 23 -28 19 -13 20 -17 7 -26 -13 -9 -13 -10 2 -6 22 7 30 -3 17 -20 -13
-15 -124 -19 -114 -3 3 5 0 7 -8 4 -7 -2 -45 -9 -83 -14 -146 -19 -233 -44
-268 -77 -12 -10 -32 -26 -46 -35 -14 -9 -41 -31 -60 -50 -19 -18 -49 -44 -66
-58 -18 -15 -35 -42 -43 -68 -10 -34 -15 -41 -25 -32 -10 8 -15 6 -20 -6 -3
-9 -4 -20 0 -25 3 -5 -1 -12 -9 -15 -8 -3 -22 -23 -32 -45 -10 -21 -24 -39
-30 -39 -7 0 -15 -7 -19 -15 -3 -8 -15 -15 -26 -15 -21 0 -28 -16 -9 -22 6 -2
-20 -25 -59 -50 -56 -38 -70 -51 -70 -72 0 -20 7 -28 26 -33 18 -4 32 -22 53
-69 16 -35 29 -70 29 -77 0 -8 14 -31 30 -52 18 -23 26 -41 20 -45 -14 -9 -24
-66 -12 -74 6 -3 28 9 49 29 21 19 40 30 42 24 2 -6 -12 -24 -30 -40 -18 -16
-29 -29 -24 -29 5 0 -6 -11 -25 -24 -20 -14 -38 -20 -41 -14 -6 10 -79 -111
-79 -131 0 -6 -17 -30 -38 -53 -25 -28 -30 -38 -15 -30 12 7 24 12 28 12 8 0
-10 -32 -32 -55 -18 -18 -18 -23 -5 -57 13 -32 13 -40 1 -54 -19 -23 -11 -85
15 -114 38 -42 86 -120 86 -139 0 -10 -13 -58 -29 -107 -19 -58 -30 -118 -33
-171 l-5 -83 549 0 c307 0 548 4 548 9 0 5 21 18 48 30 43 20 106 63 194 133
37 30 88 52 88 39 0 -16 -102 -102 -180 -153 -41 -27 -77 -51 -79 -54 -2 -2
12 -4 31 -4 29 0 45 9 82 46 25 25 51 42 56 39 6 -4 8 -11 4 -16 -3 -5 -10 -7
-15 -4 -5 4 -9 2 -9 -3 0 -5 -17 -21 -37 -35 l-38 -27 454 0 454 0 -7 33 c-4
17 -10 55 -13 82 -3 28 -14 59 -23 70 -27 31 -45 72 -74 171 l-27 91 31 95
c16 52 34 119 40 149 6 30 19 83 30 119 22 72 41 220 28 220 -4 0 -8 -7 -8
-16 0 -8 -4 -12 -10 -9 -6 3 -7 30 -3 65 5 49 1 75 -26 157 -53 164 -132 292
-241 388 -7 6 -27 28 -47 50 -19 22 -33 36 -30 30 15 -36 175 -294 200 -322
17 -19 31 -43 32 -53 2 -21 45 -78 45 -59 0 8 9 -6 20 -30 23 -50 26 -79 4
-38 -8 15 -19 27 -24 27 -14 0 -13 -5 9 -48 18 -37 35 -92 27 -92 -2 0 -16 24
-30 53 -35 69 -58 108 -73 125 -18 19 -16 1 2 -22 8 -11 15 -28 15 -39 0 -11
-27 19 -66 74 -37 52 -80 108 -97 126 -16 17 -26 36 -22 42 6 11 -27 77 -50
96 -10 9 -46 68 -95 156 -8 14 -36 57 -61 95 -81 120 -180 318 -150 300 17
-11 13 23 -10 84 -37 97 -58 256 -48 378 4 59 15 129 23 156 8 27 12 61 9 76
-4 20 3 38 26 70 17 24 31 48 31 53 0 6 -13 -10 -30 -34 -26 -40 -99 -109
-115 -109 -3 0 27 37 66 83 39 45 77 81 84 79 7 -1 26 18 43 43 26 40 29 49
19 74 -8 22 -7 37 6 70 10 23 17 50 17 61 0 11 10 43 23 72 38 85 42 122 6 53
-18 -33 -39 -70 -49 -82 -9 -11 -31 -60 -50 -107 -18 -48 -34 -85 -36 -83 -6
5 53 193 69 223 18 31 40 83 42 99 1 6 4 17 7 25 3 8 17 64 32 124 22 95 30
113 58 136 17 14 33 35 34 46 2 15 -3 12 -24 -13 -22 -25 -39 -33 -87 -41 -33
-6 -79 -7 -102 -3 -46 9 -154 60 -218 103 -63 41 -87 44 -105 11 -12 -21 -13
-35 -6 -55 5 -15 7 -31 3 -34 -11 -11 -36 16 -111 121 -134 188 -161 239 -135
256 8 5 9 9 3 9 -6 0 -26 14 -45 31 -19 17 -50 41 -69 54 -20 12 -48 41 -64
64 -24 34 -26 43 -16 56 18 22 26 19 51 -22 13 -21 26 -40 29 -43 4 -3 15 -20
25 -37 11 -18 22 -33 26 -33 15 0 80 -71 74 -80 -4 -6 1 -13 9 -16 9 -3 14
-10 11 -14 -7 -12 37 -100 47 -94 4 3 8 1 8 -5 0 -10 34 -8 60 3 11 4 28 -10
55 -46 22 -29 43 -60 47 -68 5 -10 7 -7 5 9 -4 41 22 35 69 -13 46 -49 106
-80 171 -91 21 -4 65 -14 97 -22 33 -8 74 -12 92 -8 68 12 206 197 254 340 33
98 88 208 99 200 5 -3 7 3 4 14 -3 10 1 22 8 27 9 5 10 2 5 -12 -6 -15 -4 -16
5 -7 6 6 13 23 14 37 4 31 14 48 25 41 5 -3 17 9 26 27 9 18 29 49 43 67 30
40 8 31 -28 -12 -13 -15 -30 -26 -37 -23 -7 3 -27 -11 -44 -32 l-30 -37 0 36
c0 36 33 98 94 174 62 76 48 69 -44 -22 -50 -51 -94 -93 -96 -93 -3 0 -16 -12
-29 -27 -37 -44 -41 -18 -7 48 41 79 42 102 5 67 -49 -44 -145 -92 -186 -93
l-39 0 74 67 c75 69 80 79 25 52 l-32 -15 36 33 c20 18 71 60 114 92 66 50 75
61 59 66 -22 8 -111 -36 -159 -79 -29 -26 -29 -26 3 12 45 53 39 60 -8 10 -62
-65 -105 -82 -52 -21 8 10 12 28 10 42 -3 14 -1 24 5 23 5 -1 12 4 15 12 3 9
0 11 -9 7 -20 -10 5 11 74 62 31 23 57 46 57 51 0 4 -28 -7 -62 -25 -35 -18
-81 -42 -103 -52 -22 -11 -50 -29 -61 -40 -12 -12 -25 -18 -30 -14 -4 4 -4 2
-1 -4 3 -5 -30 -43 -74 -83 -72 -67 -96 -101 -69 -101 6 0 -12 -31 -40 -69
-27 -38 -50 -72 -50 -77 0 -4 7 1 15 12 12 16 14 17 15 2 0 -18 -49 -82 -58
-74 -3 3 -19 -13 -35 -35 -20 -27 -32 -37 -37 -29 -6 9 -11 7 -18 -6 -8 -14
-13 -16 -24 -6 -12 10 -17 7 -26 -13 -11 -24 -10 -25 8 -15 21 11 21 10 24
-35 1 -19 28 -46 166 -164 72 -62 115 -151 91 -190 -7 -11 -17 -9 -52 10 -24
13 -50 30 -57 37 -7 6 -20 12 -29 12 -8 0 -54 39 -101 88 -48 48 -118 110
-155 137 -37 28 -94 70 -126 95 -32 25 -71 54 -86 65 -30 21 -67 55 -122 115
-18 19 -48 51 -68 70 -19 19 -35 43 -35 53 0 10 -13 37 -28 60 -68 101 -115
190 -129 244 -16 61 -23 77 -23 51z m1300 -477 c0 -5 -7 -14 -15 -21 -8 -7
-13 -16 -10 -20 3 -5 1 -11 -5 -15 -5 -3 -10 -22 -10 -42 0 -46 -34 -115 -64
-129 -23 -11 -24 -10 -19 30 6 44 9 50 62 118 l34 43 -49 -46 c-27 -25 -67
-60 -88 -78 -36 -31 -40 -32 -49 -15 -9 15 1 29 64 87 41 39 62 62 47 53 -16
-10 -29 -13 -32 -7 -6 9 11 18 53 26 11 2 29 8 38 14 22 13 43 14 43 2z m-432
-2849 c2 -12 8 -20 13 -17 5 4 9 2 9 -3 0 -5 11 -8 25 -7 34 4 111 -50 248
-175 48 -43 93 -103 53 -71 -14 12 -19 12 -26 1 -11 -18 -100 37 -118 73 -7
15 -17 27 -22 27 -5 0 -12 9 -15 20 -4 12 -35 35 -76 55 -38 20 -69 40 -69 46
0 5 -5 7 -12 3 -6 -4 -8 -3 -5 3 4 6 -9 9 -31 8 -20 -1 -46 4 -57 12 -11 7
-31 13 -46 13 -14 0 -39 4 -55 9 -16 5 -42 13 -59 17 l-30 7 29 6 c15 3 76 4
135 1 101 -5 106 -6 109 -28z m-19 -835 c-9 -7 -14 -17 -12 -23 4 -11 -27 -44
-150 -163 -65 -64 -74 -69 -129 -75 -15 -2 -33 -8 -40 -13 -24 -19 -213 -120
-248 -133 -19 -7 -54 -21 -76 -32 -72 -33 -189 -67 -198 -58 -12 12 116 71
161 74 44 2 128 32 161 57 13 10 39 23 58 29 23 8 34 18 34 31 0 13 12 25 33
34 19 8 40 21 47 30 8 9 34 27 59 40 50 25 215 146 285 207 11 10 22 15 25 12
3 -3 -1 -11 -10 -17z"/>
<path d="M2944 4341 c-44 -31 -93 -66 -108 -78 l-28 -23 33 -42 c19 -24 43
-52 53 -63 20 -20 20 -20 3 5 -43 64 -46 73 -31 108 7 19 18 31 24 27 5 -3 10
-1 10 5 0 6 5 8 10 5 6 -4 9 -14 8 -22 -3 -18 37 -26 62 -12 11 6 7 10 -17 15
-37 7 -41 14 -15 30 33 20 64 1 99 -61 18 -33 32 -53 32 -45 -1 23 -37 117
-39 100 0 -10 -8 -6 -25 13 -27 30 -33 51 -13 45 16 -6 38 16 38 36 0 23 -6
20 -96 -43z"/>
<path d="M2498 4018 c-157 -138 -169 -148 -185 -148 -8 0 -13 -6 -10 -12 2 -7
-15 -34 -39 -59 -54 -59 -130 -209 -161 -319 -30 -106 -42 -205 -48 -389 -5
-146 -15 -207 -15 -91 0 108 -22 55 -27 -67 -4 -84 -2 -119 11 -156 18 -54 21
-81 7 -72 -24 14 59 -174 115 -262 35 -55 109 -117 131 -109 7 3 15 1 19 -5 3
-5 24 -21 46 -35 49 -31 43 -42 -12 -20 -23 9 -46 14 -51 10 -5 -3 -16 0 -24
6 -35 29 -11 -9 38 -59 34 -35 42 -47 22 -34 -31 22 -134 126 -151 153 -12 20
-94 84 -94 73 1 -14 45 -137 58 -160 7 -13 16 -22 20 -20 13 4 59 -38 55 -50
-2 -6 1 -14 6 -18 6 -3 11 -16 11 -28 0 -12 5 -29 11 -37 8 -11 9 -8 4 15 l-6
29 24 -24 c13 -14 27 -33 30 -43 4 -10 11 -16 15 -13 13 8 65 -92 58 -109 -3
-8 -1 -25 5 -37 8 -20 9 -19 4 7 l-5 30 19 -35 c11 -19 24 -35 29 -35 17 0
232 -273 310 -395 41 -63 85 -124 98 -135 13 -11 39 -54 58 -96 19 -43 39 -80
45 -84 6 -3 37 -8 68 -11 55 -4 60 -6 125 -71 37 -37 66 -69 64 -71 -3 -2 -24
8 -49 22 -50 29 -67 32 -67 12 0 -8 15 -19 33 -24 17 -5 51 -15 75 -22 23 -7
44 -11 47 -8 3 2 10 39 17 81 10 69 13 75 25 57 15 -21 62 -27 79 -10 6 6 23
-7 49 -40 31 -39 41 -46 48 -35 11 20 27 19 27 -2 1 -13 6 -9 16 11 10 17 14
40 10 60 -6 31 7 66 20 54 7 -7 -10 -141 -22 -171 -8 -22 19 -23 40 -1 14 14
16 14 16 0 0 -8 -9 -24 -20 -34 -18 -16 -19 -21 -6 -31 11 -10 18 -5 37 26 19
30 24 34 27 19 2 -10 -6 -32 -17 -47 -28 -38 -17 -58 15 -28 33 31 40 18 9
-19 -14 -16 -25 -34 -25 -38 1 -5 14 6 30 25 l30 35 22 -21 c13 -11 42 -32 66
-47 78 -49 160 -140 202 -228 22 -45 48 -87 59 -94 10 -7 24 -27 31 -44 7 -16
16 -30 21 -30 5 0 6 -7 2 -16 -5 -13 -2 -15 15 -10 17 6 24 2 33 -18 10 -22 8
-31 -15 -63 -45 -65 -53 -73 -65 -73 -7 0 -9 -5 -6 -10 3 -6 3 -19 0 -31 -5
-16 -10 -18 -21 -8 -8 6 -14 8 -14 3 0 -5 -13 11 -30 35 -16 25 -42 52 -57 60
-18 9 -23 16 -15 19 9 3 6 8 -10 16 -21 11 -24 9 -36 -18 -7 -18 -10 -48 -7
-75 l5 -46 -14 45 c-8 25 -20 65 -26 90 -22 86 -43 112 -140 177 -51 35 -95
63 -97 63 -7 0 8 -60 29 -118 14 -37 27 -56 44 -62 13 -5 24 -16 24 -24 0 -7
7 -17 16 -20 26 -10 28 -7 8 15 -19 22 -19 22 4 10 23 -12 23 -12 11 11 -7 13
-23 38 -37 56 -14 18 -22 35 -19 38 9 9 46 -15 57 -37 6 -11 22 -24 36 -29 18
-7 24 -17 24 -38 0 -15 6 -34 13 -41 10 -11 9 -13 -5 -8 -23 8 -32 -8 -13 -23
12 -10 15 -10 15 1 1 16 24 -24 35 -60 6 -20 -3 -16 -60 30 -158 127 -168 140
-201 285 -9 43 -23 86 -29 94 -14 17 -9 40 8 40 6 0 37 -27 69 -61 81 -84 75
-92 -11 -15 -33 31 -33 31 -26 6 4 -14 12 -31 18 -38 14 -17 107 -65 107 -55
0 14 -37 147 -49 177 -13 33 -16 32 -25 -8 -6 -23 -4 -27 7 -23 10 4 16 -3 20
-19 2 -13 3 -24 1 -24 -7 0 -89 93 -101 114 -17 30 -16 44 2 20 14 -18 14 -18
15 6 1 35 19 5 22 -35 0 -16 4 6 8 50 3 44 5 82 3 84 -1 2 -14 1 -28 -3 -17
-4 -25 -13 -25 -29 0 -12 -5 -29 -10 -37 -8 -12 -10 -9 -10 11 0 30 -34 78
-46 67 -4 -5 -2 -20 5 -34 6 -15 10 -28 8 -31 -3 -2 -13 16 -23 40 -10 25 -31
53 -46 63 -15 11 -28 25 -28 31 0 7 -9 27 -20 45 -25 41 -25 48 1 48 19 0 52
-29 92 -81 10 -13 15 -17 11 -9 -7 13 -5 13 9 2 13 -11 14 -19 6 -40 -8 -22
-8 -25 2 -14 14 13 33 17 25 4 -8 -13 11 -35 23 -28 21 13 11 35 -37 84 -43
44 -143 112 -166 112 -5 0 -6 -21 -2 -48 3 -26 8 -63 9 -82 2 -19 18 -63 35
-97 26 -50 38 -63 67 -73 19 -6 35 -17 35 -23 1 -7 7 -1 15 13 14 23 15 22 9
-30 -8 -62 -14 -78 -14 -34 0 25 -8 34 -50 59 -73 43 -112 121 -118 235 -4 87
-22 138 -22 64 0 -65 -9 -84 -39 -84 -38 0 -187 37 -221 55 -28 14 -30 14 -30
-2 0 -10 5 -34 10 -54 5 -19 11 -51 13 -69 2 -34 2 -34 107 -65 58 -17 111
-34 118 -39 7 -4 21 -25 32 -46 11 -21 58 -76 106 -122 47 -46 89 -90 94 -98
4 -8 11 -41 15 -72 l7 -57 -37 -7 -38 -7 34 -29 c19 -15 48 -41 65 -56 17 -15
45 -35 62 -44 37 -20 38 -25 12 -56 -17 -20 -22 -22 -42 -11 -31 17 -58 21
-58 9 0 -22 -40 -8 -86 30 -66 55 -81 50 -19 -6 l50 -45 -52 24 c-28 13 -68
36 -87 51 -20 14 -37 25 -39 24 -2 -2 -11 3 -20 11 -20 16 -22 3 -4 -24 8 -11
17 -29 21 -39 5 -16 4 -17 -8 -7 -8 7 -20 10 -26 6 -15 -9 -120 102 -145 152
-11 23 -23 39 -27 37 -5 -3 -8 6 -8 20 0 14 -5 28 -10 31 -6 4 -8 16 -5 28 5
17 4 19 -4 7 -9 -13 -11 -13 -11 3 0 9 -6 17 -14 17 -12 0 -14 -22 -13 -122 2
-131 -6 -189 -25 -170 -8 8 -20 -8 -44 -56 -18 -37 -54 -90 -81 -117 -26 -28
-54 -59 -62 -68 -13 -16 21 -17 563 -17 545 0 577 1 572 18 -5 16 9 52 16 42
2 -3 12 -17 21 -32 17 -28 19 -28 121 -28 l103 0 19 68 c13 47 19 98 18 172 0
103 0 104 12 55 7 -27 13 -60 13 -72 2 -38 17 -26 44 35 15 32 37 74 50 94 41
59 60 120 48 151 -7 18 -7 26 -1 22 6 -4 10 6 10 22 0 19 -7 31 -21 38 -12 6
-28 28 -35 50 -17 52 -152 317 -168 330 -6 6 -25 27 -41 48 -15 21 -40 44 -55
52 l-27 14 13 -40 c8 -22 12 -51 10 -64 -3 -14 0 -25 5 -25 6 0 7 -5 4 -11 -5
-7 -15 -4 -29 9 -11 10 -28 23 -36 27 -13 8 -13 7 -1 -11 8 -10 29 -34 45 -52
l31 -33 -28 10 -28 11 31 -43 c17 -24 33 -59 35 -78 l4 -34 -57 65 c-31 35
-96 103 -143 150 l-87 85 -6 74 c-5 61 -11 78 -31 97 -14 13 -25 31 -25 41 0
15 2 16 10 3 13 -18 3 35 -11 62 -5 9 -5 19 0 22 12 8 21 -4 21 -26 0 -10 4
-18 9 -18 10 0 5 31 -9 65 -17 41 -19 55 -9 55 6 0 8 9 4 20 -4 12 -2 20 5 20
6 0 9 4 6 8 -3 5 -5 37 -5 73 -1 35 -1 77 -1 94 -1 39 13 23 30 -35 7 -25 19
-65 27 -90 l13 -45 -5 63 c-3 34 -2 62 3 62 10 0 6 84 -10 200 -7 47 -11 88
-10 92 1 5 -2 8 -8 8 -5 0 -10 9 -10 21 0 11 -3 18 -7 16 -5 -3 -6 19 -5 48 3
39 -6 89 -32 183 -20 71 -36 139 -36 150 0 11 -5 24 -11 28 -9 5 -10 -1 -5
-22 17 -68 55 -278 51 -282 -5 -5 -9 4 -24 63 l-10 40 3 -50 c2 -27 10 -93 19
-145 8 -52 14 -111 13 -130 -1 -19 2 -40 7 -47 5 -7 10 -30 13 -51 3 -35 1
-38 -23 -37 -21 0 -29 7 -38 35 -24 67 -36 93 -39 89 -5 -5 10 -100 20 -131 4
-14 2 -18 -5 -14 -15 10 -14 -12 5 -68 9 -26 13 -50 10 -53 -3 -4 -6 2 -6 12
0 10 -2 16 -5 14 -4 -5 9 -107 21 -158 4 -19 7 -22 14 -11 15 24 24 2 11 -26
-8 -18 -15 -24 -22 -17 -14 14 -48 106 -73 198 -12 44 -34 109 -48 145 -32 80
-52 181 -38 190 10 6 -8 134 -31 225 -19 72 -26 148 -28 290 -1 135 9 218 23
185 20 -50 46 -183 46 -241 0 -50 4 -68 15 -73 8 -3 15 -1 15 5 0 20 20 -3 21
-24 0 -21 1 -21 9 -2 5 11 9 51 9 88 1 39 5 66 10 62 5 -3 13 0 17 7 5 8 10 6
16 -8 6 -13 6 -9 2 11 -4 17 -8 51 -10 77 -2 26 -10 60 -17 75 -8 16 -20 58
-26 95 -6 36 -19 83 -27 105 -18 41 -24 206 -10 256 5 15 4 27 0 27 -9 0 -49
-74 -107 -200 -47 -102 -113 -192 -256 -349 -159 -175 -180 -191 -245 -190
-28 0 -69 4 -91 8 l-40 9 43 1 c23 0 42 6 42 11 0 6 -7 10 -15 10 -20 0 -140
56 -183 85 -76 52 -145 128 -179 198 -19 39 -46 84 -59 100 -13 15 -32 47 -43
70 -11 23 -24 49 -29 57 -28 49 -32 63 -26 113 10 87 -10 156 -68 234 -60 81
-81 124 -103 218 l-17 70 32 60 c44 84 59 91 106 50 16 -14 41 -29 57 -32 15
-3 30 -10 33 -14 3 -5 13 -9 23 -9 10 0 30 -9 45 -21 22 -17 26 -18 26 -4 0
10 4 13 13 8 37 -23 128 -17 139 10 7 15 16 17 73 11 68 -7 72 -5 55 27 -8 14
-7 19 3 19 7 0 17 -4 22 -8 13 -11 94 -36 99 -31 8 8 11 229 4 229 -5 0 -8 6
-8 14 0 40 -163 102 -368 139 l-64 12 77 83 c42 45 72 82 67 82 -5 0 -57 -42
-114 -92z m447 -1940 c44 -22 90 -49 103 -61 33 -31 61 -100 77 -192 16 -90
18 -109 5 -80 -18 41 -10 -39 20 -213 30 -175 35 -240 21 -276 -13 -32 -19 -6
-25 106 -3 59 -18 187 -32 285 -15 98 -26 193 -26 211 3 47 -48 140 -69 127
-4 -3 -11 0 -15 6 -5 8 -2 10 7 5 8 -4 1 4 -16 18 -16 15 -55 35 -85 47 -30
11 -62 26 -70 33 -8 8 -28 18 -45 24 -27 10 -24 11 20 6 29 -3 84 -23 130 -46z
m845 -1121 c73 -59 227 -210 202 -197 -21 10 -23 10 -13 -7 6 -10 19 -29 29
-43 9 -13 -13 6 -50 43 -37 37 -74 67 -81 67 -16 0 -138 125 -130 133 2 3 -15
27 -38 54 -78 87 -84 99 -24 42 33 -30 80 -72 105 -92z"/>
<path d="M3345 3824 c-47 -10 -102 -30 -134 -48 -29 -17 -33 -23 -28 -52 4
-25 -2 -50 -26 -96 -19 -39 -31 -79 -31 -105 -1 -47 11 -66 25 -40 11 19 53
22 94 7 21 -8 25 -13 16 -23 -8 -10 -4 -18 17 -33 32 -24 66 -38 57 -24 -3 5
14 7 45 3 37 -4 55 -2 68 9 9 8 25 18 35 21 10 4 17 17 17 32 0 14 4 25 9 25
4 0 24 14 42 30 31 28 33 31 16 41 -16 10 -17 13 -4 27 28 31 10 69 -49 103
-30 17 -54 34 -54 39 0 15 37 30 74 30 42 0 48 20 14 44 -21 15 -147 21 -203
10z"/>
<path d="M2872 3209 c-40 -29 -82 -100 -82 -138 0 -18 42 -54 82 -71 13 -6 30
-14 38 -19 8 -6 27 -12 42 -15 15 -4 30 -15 33 -26 8 -27 17 -25 67 10 24 17
57 41 74 52 25 18 31 28 29 52 -2 30 -5 31 -56 37 -88 10 -164 63 -152 108 3
12 -2 23 -15 30 -15 8 -27 4 -60 -20z"/>
<path d="M2830 2840 c-76 -22 -111 -26 -162 -15 -31 6 -38 4 -38 -9 0 -8 14
-23 31 -32 45 -23 129 -84 129 -94 0 -5 -4 -12 -10 -15 -18 -11 -10 -29 27
-69 34 -37 41 -40 102 -43 36 -2 82 -8 102 -12 21 -5 41 -6 46 -2 19 12 34 52
28 71 -4 13 -1 22 9 26 8 3 21 23 30 44 10 27 26 43 53 56 46 23 60 61 19 50
-21 -5 -37 1 -71 25 -41 30 -47 31 -86 21 -34 -9 -47 -8 -63 4 -27 18 -66 17
-146 -6z"/>
<path d="M1907 2739 c3 -28 0 -50 -6 -54 -6 -3 -11 -16 -12 -28 0 -21 -1 -21
-9 -2 -6 14 -9 1 -9 -45 -1 -71 22 -217 38 -247 6 -10 19 -39 30 -65 11 -27
24 -48 30 -48 10 0 23 -32 26 -61 4 -48 183 -294 201 -276 4 4 3 12 -3 18 -6
6 -9 17 -7 24 3 6 -2 18 -11 25 -8 7 -15 17 -15 22 0 5 -18 35 -39 67 -26 39
-38 65 -35 79 4 15 1 20 -11 19 -23 -2 -45 31 -28 41 8 5 -2 39 -37 117 -27
61 -50 124 -50 141 0 17 -7 50 -15 73 -8 23 -17 65 -20 94 l-6 52 20 -40 c24
-50 26 -29 4 66 -12 53 -18 68 -23 54 -7 -20 -8 -20 -12 0 -3 11 -3 -1 -1 -26z"/>
<path d="M3776 1399 c-19 -18 -19 -21 -3 -72 9 -30 17 -63 17 -75 0 -12 6 -36
14 -54 8 -18 22 -52 32 -76 20 -49 60 -96 74 -87 5 3 1 25 -11 52 -11 26 -18
54 -16 62 3 11 9 4 20 -19 8 -20 25 -44 37 -55 l21 -19 -11 29 c-20 54 -95
205 -102 205 -4 0 -8 -15 -10 -32 -2 -18 -7 -33 -13 -33 -11 0 -17 37 -16 97
0 20 -4 40 -9 43 -6 4 -7 17 -4 31 7 29 5 29 -20 3z"/>
<path d="M4550 1334 l0 -29 -19 24 c-24 31 -26 21 -29 -104 -2 -55 -5 -112 -8
-126 -4 -21 3 -33 36 -62 22 -21 45 -38 50 -38 14 -2 23 -5 40 -13 22 -9 50
-3 83 18 34 23 34 32 -3 51 -16 9 -30 21 -30 28 0 8 4 7 10 -3 5 -8 13 -11 17
-6 10 10 -23 35 -57 43 -32 7 -51 23 -44 34 3 6 20 1 38 -11 19 -11 36 -20 40
-20 3 0 -3 23 -15 51 -11 29 -18 57 -16 63 6 17 -18 58 -57 95 l-36 35 0 -30z"/>
<path d="M2482 923 c-5 -10 -12 -38 -16 -63 -9 -61 -42 -168 -81 -265 -57
-137 -56 -156 4 -324 34 -94 58 -129 48 -71 l-7 35 26 -30 c24 -28 25 -35 21
-118 -2 -48 -1 -87 3 -87 12 0 70 88 100 152 32 70 91 228 85 228 -3 0 -14
-18 -25 -39 -11 -22 -24 -42 -30 -46 -11 -7 15 72 31 91 7 9 5 15 -6 22 -15 8
-16 12 -2 38 8 16 30 74 49 129 35 103 40 157 12 134 -11 -9 -15 -8 -18 2 -13
41 -14 43 -15 22 -1 -13 -6 -23 -12 -23 -5 0 -8 -4 -4 -9 3 -5 -5 -25 -17 -44
-13 -19 -32 -50 -42 -68 -15 -26 -20 -30 -23 -16 -6 24 -20 21 -27 -5 -8 -31
-8 -138 0 -138 4 0 13 8 20 18 13 16 13 16 14 -3 0 -29 -45 -146 -56 -146 -5
0 -11 29 -14 63 -7 73 -13 64 -33 -47 l-14 -80 -2 111 c-1 112 18 347 40 502
12 82 9 110 -9 75z"/>
<path d="M4490 825 c-1 -5 -1 -77 0 -160 1 -148 -10 -236 -35 -285 -18 -34
-79 -260 -77 -284 0 -10 -8 -37 -19 -58 l-20 -40 23 4 c29 4 73 82 88 158 6
30 17 87 25 125 34 168 45 234 51 303 4 40 9 70 11 68 3 -3 9 -29 13 -58 l8
-53 1 58 c1 38 -7 81 -23 127 -26 72 -45 112 -46 95z"/>
<path d="M2784 435 c-29 -39 -68 -104 -88 -145 -21 -41 -42 -79 -48 -85 -6 -6
-6 -1 1 13 12 23 0 31 -16 10 -5 -7 -18 -35 -28 -62 -10 -28 -30 -68 -45 -90
-16 -22 -25 -47 -22 -55 3 -9 1 -12 -6 -7 -7 4 -12 2 -12 -3 0 -6 20 -11 43
-11 40 0 50 6 125 75 84 78 142 170 142 224 0 21 -2 23 -10 11 -12 -18 -5 50
12 116 20 81 6 83 -48 9z"/>
<path d="M4717 317 c-3 -7 -3 -25 0 -40 7 -35 -3 -73 -21 -80 -12 -5 -14 3
-10 46 4 47 3 49 -7 22 -7 -16 -17 -36 -23 -44 -6 -7 -16 -32 -23 -55 l-11
-41 -1 34 c-1 49 -8 35 -15 -34 -4 -33 -9 -75 -13 -92 l-5 -33 46 0 c39 0 46
3 46 20 0 11 7 20 15 20 17 0 20 25 5 35 -15 9 -12 25 5 25 18 0 18 5 5 31 -6
10 -7 19 -2 19 11 0 32 98 32 147 0 33 -13 45 -23 20z"/>
<path d="M4290 233 c-14 -25 -110 -223 -110 -229 0 -2 22 -4 48 -4 45 0 49 2
65 35 12 25 16 60 16 125 -1 49 -3 90 -5 90 -2 0 -8 -8 -14 -17z"/>
</g>
</svg>
